<svg xmlns="http://www.w3.org/2000/svg" viewBox="0 0 480 620" role="img" aria-labelledby="title"><title id="title">Un toque prende, tres segundos apaga y QuikCapture graba directamente</title><style>text{font-family:"Atkinson Hyperlegible",system-ui,sans-serif;font-size:22px;fill:#1B2430} .label{font-weight:700} .small{font-size:20px} .body{fill:#FFFFFF;stroke:#1B2430;stroke-width:3} .screen{fill:#E6F4F4;stroke:#0B6B70;stroke-width:3} .line{fill:none;stroke:#0B6B70;stroke-width:3;stroke-linecap:round;stroke-linejoin:round} .red{fill:#D93F2B} .arrow{fill:none;stroke:#0B6B70;stroke-width:3;marker-end:url(#arrow)} </style><defs><marker id="arrow" viewBox="0 0 10 10" refX="8" refY="5" markerWidth="7" markerHeight="7" orient="auto-start-reverse"><path d="M0 0 10 5 0 10Z" fill="#0B6B70"/></marker></defs>
<rect x="24" y="24" width="432" height="155" rx="18" class="screen"/>
<circle cx="88" cy="94" r="35" class="body"/><path d="M88 68V88m-17-9a25 25 0 1 0 34 0" class="line"/>
<text x="145" y="81" class="small">Botón Modo</text><text x="145" y="119" class="label">1 toque = prende</text>
<rect x="24" y="198" width="432" height="155" rx="18" class="screen"/>
<circle cx="88" cy="268" r="35" class="body"/><path d="M88 242V262m-17-9a25 25 0 1 0 34 0" class="line"/>
<text x="145" y="255" class="small">Botón Modo</text><text x="145" y="293" class="label">3 s = apaga</text>
<rect x="24" y="372" width="432" height="220" rx="18" class="screen"/>
<rect x="56" y="409" width="74" height="49" rx="14" class="body"/><circle cx="93" cy="434" r="12" class="red"/>
<text x="151" y="426" class="label">Obturador</text><text x="151" y="456" class="small">con cámara apagada</text>
<text x="56" y="512" class="label">= QuikCapture</text><text x="56" y="548" class="small">Un toque: prende y graba.</text><text x="56" y="577" class="small">Otro: detiene y apaga.</text>
</svg>
